<?xml version="1.0" encoding="utf-8"?>
<!-- Generator: Adobe Illustrator 26.5.0, SVG Export Plug-In . SVG Version: 6.00 Build 0)  -->
<svg version="1.1" id="Social_Media" xmlns="http://www.w3.org/2000/svg" xmlns:xlink="http://www.w3.org/1999/xlink" x="0px"
	 y="0px" width="281.653px" height="80px" viewBox="0 0 281.653 80" style="enable-background:new 0 0 281.653 80;"
	 xml:space="preserve">
<style type="text/css">
	.st0{fill:#FFFFFF;}
	.st1{fill:#40AF49;}
	.st2{fill:#EBDC15;}
	.st3{fill:#1B80E4;}
	.st4{fill:#FCFCFC;}
	.st5{fill:#F84437;}
	.st6{fill:#010101;}
	.st7{fill:#03ACF8;}
	.st8{fill:#FF0000;}
	.st9{fill:#0A66C2;}
	.st10{fill:#9B9B9B;}
	.st11{fill:#686868;}
	.st12{fill:#8E8E8E;}
	.st13{fill:#878787;}
	.st14{fill:#727272;}
	.st15{fill:#B5B5B5;}
	.st16{fill:#757575;}
	.st17{fill:#6D6D6D;}
</style>
<g id="logopond">
	
		<ellipse transform="matrix(0.9528 -0.3035 0.3035 0.9528 6.3607 79.8416)" class="st0" cx="260.088" cy="19.454" rx="15.059" ry="10.378"/>
	<g>
		<path class="st1" d="M262.846,8.287c0.05,0.011,0.084,0.03,0.119,0.033c0.522,0.047,1.044,0.089,1.566,0.138
			c1.233,0.116,2.444,0.364,3.634,0.696c0.857,0.239,1.703,0.526,2.531,0.852c0.773,0.304,1.528,0.663,2.269,1.039
			c0.847,0.431,1.639,0.956,2.403,1.525c0.735,0.548,1.403,1.167,2.026,1.834c0.517,0.554,0.962,1.167,1.346,1.823
			c0.331,0.565,0.62,1.151,0.793,1.783c0.128,0.467,0.222,0.944,0.304,1.421c0.051,0.299,0.077,0.608,0.069,0.911
			c-0.035,1.303-0.392,2.501-1.204,3.545c-0.484,0.623-1.067,1.123-1.754,1.51c-0.589,0.331-1.219,0.548-1.875,0.687
			c-0.648,0.138-1.311,0.143-1.966,0.1c-0.901-0.06-1.771-0.288-2.606-0.637c-0.036-0.015-0.071-0.034-0.118-0.056
			c2.945-2.779,4.089-6.275,4.12-10.239c-1.074-0.074-2.127-0.062-3.189,0.006c-0.316-1.451-0.799-2.829-1.51-4.138
			c-1.779,0.675-3.457,1.513-4.99,2.657c-0.952-1.633-2.148-3.044-3.602-4.234c-0.571,0.487-2.37,2.313-3.454,4.121
			c-0.146-0.095-0.292-0.191-0.438-0.286c-1.326-0.855-2.749-1.51-4.228-2.05c-0.131-0.048-0.168,0.002-0.218,0.101
			c-0.599,1.196-1.02,2.453-1.295,3.761c-0.011,0.05-0.023,0.1-0.033,0.146c-1.129,0-2.251,0-3.392,0
			c0,0.189-0.005,0.346,0.001,0.503c0.091,2.616,0.697,5.086,2.133,7.306c1.591,2.459,3.817,4.101,6.578,5.033
			c1.318,0.445,2.676,0.674,4.068,0.705c2.883,0.063,5.548-0.648,7.967-2.237c0.157-0.103,0.311-0.214,0.463-0.325
			c0.152-0.111,0.299-0.227,0.467-0.355c0.115,0.179,0.234,0.345,0.335,0.522c0.332,0.585,0.614,1.196,0.718,1.863
			c0.147,0.939-0.011,1.817-0.607,2.596c-0.427,0.558-0.972,0.958-1.574,1.295c-0.92,0.513-1.913,0.822-2.942,1.014
			c-0.539,0.1-1.084,0.17-1.628,0.24c-0.313,0.04-0.63,0.053-0.952,0.092c-0.842,0.013-1.678,0.013-2.536,0
			c-0.49-0.05-0.957-0.079-1.423-0.126c-0.474-0.048-0.951-0.093-1.42-0.175c-0.686-0.12-1.377-0.237-2.048-0.42
			c-0.917-0.249-1.823-0.543-2.724-0.845c-1.045-0.35-2.034-0.827-2.994-1.368c-0.995-0.56-1.927-1.208-2.769-1.976
			c-0.406-0.37-0.774-0.785-1.136-1.2c-0.583-0.67-1.049-1.415-1.42-2.225c-0.418-0.913-0.681-1.862-0.782-2.859
			c-0.014-0.141-0.044-0.281-0.067-0.422c0-0.584,0-1.168,0.013-1.774c0.061-0.39,0.096-0.759,0.16-1.123
			c0.193-1.09,0.571-2.116,1.099-3.089c0.441-0.811,0.975-1.557,1.592-2.24c0.529-0.585,1.109-1.122,1.737-1.602
			c0.661-0.506,1.359-0.961,2.093-1.354c0.882-0.472,1.794-0.877,2.741-1.204c1.076-0.371,2.17-0.676,3.295-0.857
			c0.652-0.105,1.302-0.222,1.957-0.301c0.515-0.062,1.036-0.074,1.555-0.11c0.029-0.002,0.057-0.022,0.086-0.033
			C261.068,8.287,261.949,8.287,262.846,8.287z"/>
		<path class="st2" d="M258.753,17.213c0.574-0.461,1.192-0.827,1.849-1.127c0.05-0.023,0.107-0.037,0.162-0.045
			c0.133-0.02,0.196,0.022,0.222,0.176c0.148,0.89,0.312,1.777,0.472,2.664c0.007,0.037,0.021,0.074,0.039,0.133
			c0.139-0.084,0.267-0.157,0.39-0.236c0.791-0.511,1.612-0.953,2.537-1.175c0.454-0.109,0.913-0.14,1.378-0.126
			c0.147,0.005,0.198,0.047,0.191,0.2c-0.044,0.842-0.242,1.649-0.566,2.423c-0.711,1.702-1.905,2.978-3.484,3.908
			c-0.024,0.014-0.051,0.026-0.092,0.047c-0.035-0.05-0.069-0.098-0.103-0.148c-0.554-0.797-1.081-1.615-1.668-2.387
			c-0.69-0.908-1.582-1.613-2.492-2.29c-0.005-0.003-0.01-0.006-0.014-0.01c-0.314-0.235-0.315-0.235-0.105-0.579
			C257.805,18.09,258.242,17.626,258.753,17.213z"/>
	</g>
</g>
<g id="facebook">
	<g>
		<g>
			<path class="st3" d="M112.395,3.472H88.759c-2.172,0-3.939,1.772-3.939,3.95v23.7c0,2.178,1.767,3.95,3.939,3.95h23.636
				c2.173,0,3.94-1.772,3.94-3.95v-23.7C116.334,5.244,114.567,3.472,112.395,3.472L112.395,3.472z"/>
			<path class="st4" d="M111.41,19.272h-4.924v-3.95c0-1.09,0.883-0.987,1.97-0.987h1.97V9.397h-3.94
				c-3.264,0-5.909,2.652-5.909,5.925v3.95h-3.939v4.938h3.939v10.862h5.909V24.209h2.954L111.41,19.272z"/>
		</g>
	</g>
</g>
<g id="adobe">
	<g>
		<g>
			<g>
				<path class="st5" d="M204.402,3.68v29.628h0.188L216.544,3.68H204.402z"/>
				<path class="st5" d="M238.172,3.68h-12.326l12.326,29.628V3.68z"/>
				<path class="st5" d="M224.385,33.308h5.108l-8.223-19.125l-5.433,13.35h6.07L224.385,33.308z"/>
			</g>
		</g>
	</g>
</g>
<g id="github">
	<g>
		<g>
			<g>
				<path class="st6" d="M140.57,3.472c-8.854,0-16.035,7.228-16.035,16.144c0,7.132,4.595,13.181,10.969,15.318
					c0.802,0.149,1.095-0.349,1.095-0.777c0-0.384-0.014-1.399-0.022-2.746c-4.46,0.975-5.402-2.165-5.402-2.165
					c-0.728-1.866-1.78-2.362-1.78-2.362c-1.457-1.001,0.108-0.981,0.108-0.981c1.61,0.114,2.455,1.664,2.455,1.664
					c1.431,2.466,3.755,1.755,4.669,1.341c0.144-1.043,0.559-1.755,1.019-2.159c-3.56-0.408-7.305-1.793-7.305-7.978
					c0-1.763,0.626-3.204,1.652-4.334c-0.166-0.408-0.716-2.05,0.157-4.272c0,0,1.347-0.434,4.41,1.654
					c1.279-0.358,2.65-0.536,4.015-0.543c1.361,0.008,2.734,0.185,4.015,0.545c3.061-2.089,4.406-1.654,4.406-1.654
					c0.874,2.223,0.325,3.863,0.16,4.271c1.028,1.13,1.648,2.571,1.648,4.334c0,6.201-3.749,7.565-7.321,7.965
					c0.575,0.499,1.088,1.483,1.088,2.989c0,2.159-0.02,3.9-0.02,4.428c0,0.432,0.289,0.934,1.102,0.776
					c6.365-2.139,10.955-8.187,10.955-15.316C156.609,10.7,149.429,3.472,140.57,3.472L140.57,3.472z"/>
			</g>
		</g>
	</g>
</g>
<g id="twitter">
	<g>
		<g>
			<path class="st7" d="M76.851,9.294c-1.215,0.535-2.511,0.889-3.861,1.061c1.389-0.831,2.449-2.138,2.947-3.713
				c-1.295,0.774-2.725,1.321-4.248,1.626c-1.23-1.313-2.982-2.126-4.894-2.126c-3.71,0-6.696,3.019-6.696,6.72
				c0,0.533,0.045,1.044,0.155,1.532c-5.57-0.273-10.499-2.949-13.81-7.027c-0.578,1.005-0.917,2.157-0.917,3.396
				c0,2.327,1.195,4.389,2.976,5.583c-1.076-0.02-2.133-0.333-3.027-0.827v0.074c0,3.264,2.323,5.976,5.368,6.601
				c-0.545,0.15-1.14,0.221-1.757,0.221c-0.429,0-0.862-0.025-1.268-0.115c0.868,2.661,3.332,4.617,6.261,4.68
				c-2.28,1.788-5.174,2.865-8.307,2.865c-0.549,0-1.076-0.024-1.604-0.092c2.968,1.919,6.485,3.015,10.279,3.015
				c12.329,0,19.07-10.241,19.07-19.117c0-0.297-0.011-0.584-0.025-0.868C74.823,11.835,75.94,10.654,76.851,9.294L76.851,9.294z"/>
		</g>
	</g>
</g>
<g id="youtube">
	<g>
		<path class="st8" d="M36.736,11.282c-0.397-1.495-1.567-2.672-3.052-3.072c-2.692-0.726-13.488-0.726-13.488-0.726
			s-10.796,0-13.488,0.726c-1.485,0.4-2.655,1.577-3.052,3.072c-0.721,2.71-0.721,8.364-0.721,8.364s0,5.654,0.721,8.364
			c0.397,1.495,1.567,2.623,3.052,3.023c2.692,0.726,13.488,0.726,13.488,0.726s10.796,0,13.488-0.726
			c1.485-0.4,2.655-1.528,3.052-3.023c0.721-2.71,0.721-8.364,0.721-8.364S37.457,13.992,36.736,11.282z"/>
		<polygon class="st0" points="16.664,24.779 16.664,14.512 25.687,19.646 		"/>
	</g>
</g>
<path id="linkedin" class="st9" d="M192.091,30.205h-4.612v-7.225c0-1.723-0.031-3.941-2.399-3.941c-2.402,0-2.77,1.877-2.77,3.815
	v7.351h-4.612V15.35h4.428v2.03h0.06c0.903-1.544,2.582-2.466,4.369-2.399c4.675,0,5.537,3.075,5.537,7.076V30.205z M172.492,13.319
	c-1.478,0-2.677-1.198-2.678-2.676s1.198-2.677,2.676-2.678s2.677,1.198,2.678,2.676c0,0,0,0,0,0.001
	C175.168,12.12,173.97,13.318,172.492,13.319L172.492,13.319 M174.798,30.204h-4.617V15.35h4.618L174.798,30.204z M194.388,3.682
	h-26.525c-1.253-0.015-2.281,0.988-2.297,2.241c0,0.002,0,0.003,0,0.005v26.632c0.015,1.254,1.043,2.26,2.297,2.246h26.524
	c1.258,0.017,2.291-0.989,2.309-2.246V5.924c-0.018-1.257-1.052-2.261-2.309-2.243"/>
<g id="logopond_00000040568776138727943760000009563763403481311408_">
	
		<ellipse transform="matrix(0.9528 -0.3035 0.3035 0.9528 -5.7293 81.7203)" class="st0" cx="260.088" cy="59.295" rx="15.059" ry="10.378"/>
	<g>
		<path class="st10" d="M262.846,48.129c0.05,0.011,0.084,0.03,0.119,0.033c0.522,0.047,1.044,0.089,1.566,0.138
			c1.233,0.116,2.444,0.364,3.634,0.696c0.857,0.239,1.703,0.526,2.531,0.852c0.773,0.304,1.528,0.663,2.269,1.039
			c0.847,0.431,1.639,0.956,2.403,1.525c0.735,0.548,1.403,1.167,2.026,1.834c0.517,0.554,0.962,1.167,1.346,1.823
			c0.331,0.565,0.62,1.151,0.793,1.783c0.128,0.467,0.222,0.944,0.304,1.421c0.051,0.299,0.077,0.608,0.069,0.911
			c-0.035,1.303-0.392,2.501-1.204,3.545c-0.484,0.623-1.067,1.123-1.754,1.51c-0.589,0.331-1.219,0.548-1.875,0.687
			c-0.648,0.138-1.311,0.143-1.966,0.1c-0.901-0.06-1.771-0.288-2.606-0.637c-0.036-0.015-0.071-0.034-0.118-0.056
			c2.945-2.779,4.089-6.275,4.12-10.239c-1.074-0.074-2.127-0.062-3.189,0.006c-0.316-1.451-0.799-2.829-1.51-4.138
			c-1.779,0.675-3.457,1.513-4.99,2.657c-0.952-1.633-2.148-3.044-3.602-4.234c-0.571,0.487-2.37,2.313-3.454,4.121
			c-0.146-0.095-0.292-0.191-0.438-0.286c-1.326-0.855-2.749-1.51-4.228-2.05c-0.131-0.048-0.168,0.002-0.218,0.101
			c-0.599,1.196-1.02,2.453-1.295,3.761c-0.011,0.05-0.023,0.1-0.033,0.146c-1.129,0-2.251,0-3.392,0
			c0,0.189-0.005,0.346,0.001,0.503c0.091,2.616,0.697,5.086,2.133,7.306c1.591,2.459,3.817,4.101,6.578,5.033
			c1.318,0.445,2.676,0.674,4.068,0.705c2.883,0.063,5.548-0.648,7.967-2.237c0.157-0.103,0.311-0.214,0.463-0.325
			c0.152-0.111,0.299-0.227,0.467-0.355c0.115,0.179,0.234,0.345,0.335,0.522c0.332,0.585,0.614,1.196,0.718,1.863
			c0.147,0.939-0.011,1.817-0.607,2.596c-0.427,0.558-0.972,0.958-1.574,1.295c-0.92,0.513-1.913,0.822-2.942,1.014
			c-0.539,0.1-1.084,0.17-1.628,0.24c-0.313,0.04-0.63,0.053-0.952,0.092c-0.842,0.013-1.678,0.013-2.536,0
			c-0.49-0.05-0.957-0.079-1.423-0.126c-0.474-0.048-0.951-0.093-1.42-0.175c-0.686-0.12-1.377-0.238-2.048-0.42
			c-0.917-0.249-1.823-0.543-2.724-0.845c-1.045-0.35-2.034-0.827-2.994-1.368c-0.995-0.56-1.927-1.208-2.769-1.976
			c-0.406-0.37-0.774-0.785-1.136-1.2c-0.583-0.67-1.049-1.415-1.42-2.225c-0.418-0.913-0.681-1.862-0.782-2.859
			c-0.014-0.141-0.044-0.281-0.067-0.422c0-0.584,0-1.168,0.013-1.774c0.061-0.39,0.096-0.759,0.16-1.123
			c0.193-1.09,0.571-2.116,1.099-3.089c0.441-0.811,0.975-1.557,1.592-2.24c0.529-0.585,1.109-1.122,1.737-1.602
			c0.661-0.506,1.359-0.961,2.093-1.354c0.882-0.472,1.794-0.877,2.741-1.204c1.076-0.371,2.17-0.676,3.295-0.857
			c0.652-0.105,1.302-0.222,1.957-0.301c0.515-0.062,1.036-0.074,1.555-0.11c0.029-0.002,0.057-0.022,0.086-0.033
			C261.068,48.129,261.949,48.129,262.846,48.129z"/>
		<path class="st11" d="M258.753,57.054c0.574-0.461,1.192-0.827,1.849-1.127c0.05-0.023,0.107-0.037,0.162-0.045
			c0.133-0.02,0.196,0.022,0.222,0.176c0.148,0.89,0.312,1.777,0.472,2.664c0.007,0.037,0.021,0.074,0.039,0.133
			c0.139-0.084,0.267-0.157,0.39-0.236c0.791-0.511,1.612-0.953,2.537-1.175c0.454-0.109,0.913-0.14,1.378-0.126
			c0.147,0.005,0.198,0.047,0.191,0.2c-0.044,0.842-0.242,1.649-0.566,2.423c-0.711,1.702-1.905,2.978-3.484,3.908
			c-0.024,0.014-0.051,0.026-0.092,0.047c-0.035-0.05-0.069-0.098-0.103-0.148c-0.554-0.797-1.081-1.615-1.668-2.387
			c-0.69-0.908-1.582-1.613-2.492-2.29c-0.005-0.003-0.01-0.006-0.014-0.01c-0.314-0.235-0.315-0.235-0.105-0.579
			C257.805,57.931,258.242,57.468,258.753,57.054z"/>
	</g>
</g>
<g id="facebook_00000092450739593698993320000007992125271189818515_">
	<g>
		<g>
			<path class="st12" d="M112.395,44.443H88.759c-2.172,0-3.939,1.772-3.939,3.95v23.7c0,2.178,1.767,3.95,3.939,3.95h23.636
				c2.173,0,3.94-1.772,3.94-3.95v-23.7C116.334,46.215,114.567,44.443,112.395,44.443L112.395,44.443z"/>
			<path class="st0" d="M111.41,60.243h-4.924v-3.95c0-1.09,0.883-0.987,1.97-0.987h1.97v-4.938h-3.94
				c-3.264,0-5.909,2.652-5.909,5.925v3.95h-3.939v4.938h3.939v10.862h5.909V65.181h2.954L111.41,60.243z"/>
		</g>
	</g>
</g>
<g id="adobe_00000034767823333309812400000008208288804156252341_">
	<g>
		<g>
			<g>
				<path class="st13" d="M204.402,44.16v29.628h0.188l11.955-29.628H204.402z"/>
				<path class="st13" d="M238.172,44.16h-12.326l12.326,29.628V44.16z"/>
				<path class="st13" d="M224.385,73.789h5.108l-8.223-19.125l-5.433,13.35h6.07L224.385,73.789z"/>
			</g>
		</g>
	</g>
</g>
<g id="github_00000147185501094871312530000010817521458385406368_">
	<g>
		<g>
			<g>
				<path class="st14" d="M140.57,44.443c-8.854,0-16.035,7.228-16.035,16.144c0,7.132,4.595,13.181,10.969,15.318
					c0.802,0.149,1.095-0.349,1.095-0.777c0-0.384-0.014-1.399-0.022-2.746c-4.46,0.975-5.402-2.165-5.402-2.165
					c-0.728-1.866-1.78-2.362-1.78-2.362c-1.457-1.001,0.108-0.981,0.108-0.981c1.61,0.114,2.455,1.664,2.455,1.664
					c1.431,2.466,3.755,1.755,4.669,1.341c0.144-1.043,0.559-1.755,1.019-2.159c-3.56-0.408-7.305-1.793-7.305-7.978
					c0-1.763,0.626-3.204,1.652-4.334c-0.166-0.408-0.716-2.05,0.157-4.272c0,0,1.347-0.434,4.41,1.654
					c1.279-0.358,2.65-0.536,4.015-0.543c1.361,0.008,2.734,0.185,4.015,0.545c3.061-2.089,4.406-1.654,4.406-1.654
					c0.874,2.223,0.325,3.863,0.16,4.271c1.028,1.13,1.648,2.571,1.648,4.334c0,6.201-3.749,7.565-7.321,7.965
					c0.575,0.499,1.088,1.483,1.088,2.989c0,2.159-0.02,3.9-0.02,4.428c0,0.432,0.289,0.934,1.102,0.776
					c6.365-2.139,10.955-8.187,10.955-15.316C156.609,51.671,149.429,44.443,140.57,44.443L140.57,44.443z"/>
			</g>
		</g>
	</g>
</g>
<g id="twitter_00000032629507747377233570000005824616401611973566_">
	<g>
		<g>
			<path class="st15" d="M76.851,50.265c-1.215,0.535-2.511,0.889-3.861,1.061c1.389-0.831,2.449-2.138,2.947-3.713
				c-1.295,0.774-2.725,1.321-4.248,1.626c-1.23-1.313-2.982-2.126-4.894-2.126c-3.71,0-6.696,3.019-6.696,6.72
				c0,0.533,0.045,1.044,0.155,1.532c-5.57-0.273-10.499-2.949-13.81-7.027c-0.578,1.005-0.917,2.157-0.917,3.396
				c0,2.327,1.195,4.389,2.976,5.583c-1.076-0.02-2.133-0.333-3.027-0.827v0.074c0,3.264,2.323,5.976,5.368,6.601
				c-0.545,0.15-1.14,0.221-1.757,0.221c-0.429,0-0.862-0.025-1.268-0.115c0.868,2.661,3.332,4.617,6.261,4.68
				c-2.28,1.788-5.174,2.865-8.307,2.865c-0.549,0-1.076-0.024-1.604-0.092c2.968,1.919,6.485,3.015,10.279,3.015
				c12.329,0,19.07-10.241,19.07-19.117c0-0.297-0.011-0.584-0.025-0.868C74.823,52.807,75.94,51.626,76.851,50.265L76.851,50.265z"
				/>
		</g>
	</g>
</g>
<g id="youtube_00000095332621268486832100000013794974657789764252_">
	<g>
		<path class="st16" d="M36.736,51.124c-0.397-1.495-1.567-2.672-3.052-3.072c-2.692-0.726-13.488-0.726-13.488-0.726
			s-10.796,0-13.488,0.726c-1.485,0.4-2.655,1.577-3.052,3.072c-0.721,2.71-0.721,8.364-0.721,8.364s0,5.654,0.721,8.364
			c0.397,1.495,1.567,2.623,3.052,3.023C9.399,71.6,20.195,71.6,20.195,71.6s10.796,0,13.488-0.726
			c1.485-0.4,2.655-1.528,3.052-3.023c0.721-2.71,0.721-8.364,0.721-8.364S37.457,53.833,36.736,51.124z"/>
		<polygon class="st0" points="16.664,64.62 16.664,54.354 25.687,59.487 		"/>
	</g>
</g>
<path id="linkedin_00000120558238141818640720000009369107200485495736_" class="st17" d="M192.091,70.685h-4.612v-7.225
	c0-1.723-0.031-3.941-2.399-3.941c-2.402,0-2.77,1.877-2.77,3.815v7.351h-4.612V55.83h4.428v2.03h0.06
	c0.903-1.544,2.582-2.466,4.369-2.399c4.675,0,5.537,3.075,5.537,7.076V70.685z M172.492,53.799c-1.478,0-2.677-1.198-2.678-2.676
	s1.198-2.677,2.676-2.678c1.478,0,2.677,1.198,2.678,2.676c0,0,0,0,0,0.001C175.168,52.6,173.97,53.799,172.492,53.799
	L172.492,53.799 M174.798,70.684h-4.617V55.83h4.618L174.798,70.684z M194.388,44.162h-26.525c-1.253-0.015-2.281,0.988-2.297,2.241
	c0,0.002,0,0.003,0,0.005v26.632c0.015,1.254,1.043,2.26,2.297,2.246h26.524c1.258,0.017,2.291-0.989,2.309-2.246V46.404
	c-0.018-1.257-1.052-2.261-2.309-2.243"/>
</svg>
